{"title":"Pacific.Rim.2013.CAM.XviD-THC","uid":8698480,"size":1344648984,"categoryP":"video","categoryS":"movies","magnet":"?xt=urn:btih:7f4dcbcdf70989208bea8dc913cbd09254b781ff&amp;dn=Pacific.Rim.2013.CAM.XviD-THC&amp;tr=udp%3A%2F%2Ftracker.openbittorrent.com%3A80&amp;tr=udp%3A%2F%2Fopen.demonii.com%3A1337&amp;tr=udp%3A%2F%2Ftracker.coppersurfer.tk%3A6969&amp;tr=udp%3A%2F%2Fexodus.desync.com%3A6969","seeders":1,"leechers":0,"uploader":"Thhaque","files":-1,"time":1374008494,"description":"[IMG]http://lookpic.com/O/i2/1014/HecIhJ1F.jpeg[/IMG]\n\n[IMG]http://lookpic.com/O/i2/1747/sdkuO9RK.jpeg[/IMG]\n\n[IMG]http://lookpic.com/O/i2/1838/XqX9Z64y.jpeg[/IMG]\n\n\nSource: Italian x264 RAVERS MKV...THANKS\nAudio: A Very Good Friends...THANKS\n &lt;a href=&quot;\nhttp://www.imdb.com/title/tt1663662/&quot; rel=&quot;nofollow&quot; target=&quot;_NEW&quot;&gt;\nhttp://www.imdb.com/title/tt1663662/&lt;/a&gt;\n\nFormat                           : AVI\nFormat/Info                      : Audio Video Interleave\nFile size                        : 1.24 GiB\nDuration                         : 2h 2mn\nOverall bit rate                 : 1 449 Kbps\nWriting library                  : VirtualDub build 35390/release\n\nVideo\nID                               : 0\nFormat                           : MPEG-4 Visual\nFormat profile                   : Advanced Simple@L5\nFormat settings, BVOP            : Yes\nFormat settings, QPel            : No\nFormat settings, GMC             : No warppoints\nFormat settings, Matrix          : Default (H.263)\nMuxing mode                      : Packed bitstream\nCodec ID                         : XVID\nCodec ID/Hint                    : XviD\nDuration                         : 2h 2mn\nBit rate                         : 1 310 Kbps\nWidth                            : 720 pixels\nHeight                           : 384 pixels\nDisplay aspect ratio             : 1.875\nFrame rate                       : 29.333 fps\nColor space                      : YUV\nChroma subsampling               : 4:2:0\nBit depth                        : 8 bits\nScan type                        : Progressive\nBits/(Pixel*Frame)               : 0.161\nStream size                      : 1.12 GiB (90%)\nWriting library                  : XviD 1.2.1 (UTC 2008-12-04)\n\nAudio\nID                               : 1\nFormat                           : MPEG Audio\nFormat version                   : Version 1\nFormat profile                   : Layer 3\nMode                             : Joint stereo\nMode extension                   : MS Stereo\nCodec ID                         : 55\nCodec ID/Hint                    : MP3\nDuration                         : 2h 2mn\nBit rate mode                    : Constant\nBit rate                         : 128 Kbps\nChannel(s)                       : 2 channels\nSampling rate                    : 48.0 KHz\nStream size                      : 112 MiB (9%)\nAlignment                        : Split accross interleaves\nInterleave, duration             : 34 ms (1.00 video frame)\nInterleave, preload duration     : 500 ms\nWriting library                  : LAME\n\nWorkdone:\nGreat Italian video...didnt do so much.. but adjust the saturation, levels, lower the contrast. Could of done alot more to it... but I wanted to get this out as soon as I can.\n\nAudio:\nGot some cam audio from a good friend.... but it had issues like most cam's. Took around 2 hours getting it all the EQ bands adjusted and sync. Check Sample\n\nTHC CAM RATING:\nV8 A5.5\n\n\n[IMG]http://lookpic.com/O/i2/295/C1xPBb1E.jpeg[/IMG]\n\n[IMG]http://lookpic.com/O/i2/1602/AYu9EADY.png[/IMG]\n[IMG]http://lookpic.com/O/i2/861/fxEZCTn0.png[/IMG]\n[IMG]http://lookpic.com/O/i2/1914/2LFX6S9N.png[/IMG]\n[IMG]http://lookpic.com/O/i2/1207/x3Y6uTxF.png[/IMG]\n[IMG]http://lookpic.com/O/i2/261/NJ7oRoB.png[/IMG]\n[IMG]http://lookpic.com/O/i2/1803/vzxiQUmu.png[/IMG]\n[IMG]http://lookpic.com/O/i2/900/e5vRu1Yj.png[/IMG]\n[IMG]http://lookpic.com/O/i2/827/PwFPUsN6.png[/IMG]\n\nTHC JOKE:\n\nQ: What did the frog say after lighting up?\nA: Don't Worry be Hoppy?\n\n+1 REP if you like this release :)\n\n\n\n\n","torrent":{"xt":"urn:btih:7f4dcbcdf70989208bea8dc913cbd09254b781ff","amp;dn":"Pacific.Rim.2013.CAM.XviD-THC","amp;tr":["udp%3A%2F%2Ftracker.openbittorrent.com%3A80","udp%3A%2F%2Fopen.demonii.com%3A1337","udp%3A%2F%2Ftracker.coppersurfer.tk%3A6969","udp%3A%2F%2Fexodus.desync.com%3A6969"],"infoHash":"7f4dcbcdf70989208bea8dc913cbd09254b781ff","infoHashBuffer":{"type":"Buffer","data":[127,77,203,205,247,9,137,32,139,234,141,201,19,203,208,146,84,183,129,255]},"announce":[],"urlList":[]}}